<?xml version="1.0" encoding="utf-8"?>
<!-- Generator: Adobe Illustrator 16.0.4, SVG Export Plug-In . SVG Version: 6.00 Build 0)  -->
<!DOCTYPE svg PUBLIC "-//W3C//DTD SVG 1.1//EN" "http://www.w3.org/Graphics/SVG/1.1/DTD/svg11.dtd">
<svg version="1.1" id="Calque_1" xmlns="http://www.w3.org/2000/svg" xmlns:xlink="http://www.w3.org/1999/xlink" x="0px" y="0px"
	 width="108.723px" height="108.723px" viewBox="0 0 108.723 108.723" enable-background="new 0 0 108.723 108.723"
	 xml:space="preserve">
<g>
	<path fill="#FFFFFF" d="M54.362,0C24.338,0,0,24.338,0,54.361s24.338,54.361,54.362,54.361c30.023,0,54.361-24.338,54.361-54.361
		S84.385,0,54.362,0z M83.231,42.204c-0.683,0.515-0.895,1.058-0.902,1.901C82.201,57.479,76.807,68.329,66.13,76.29
		c-7.436,5.545-16.107,7.364-25.301,6.727c-5.271-0.365-10.241-1.82-14.895-4.332c-0.683-0.366-1.339-0.784-1.987-1.318
		c6.994,0.287,13.355-1.232,19.166-5.725c-6.089-0.628-10.193-3.28-12.518-9.28c1.989,0,3.771,0,5.554,0
		c0.038,0,0.077-0.31,0.116-0.42c-6.386-2.064-9.951-6.357-10.423-13.143c1.93,0.527,3.75,1.002,5.569,1.5
		c-5.738-6.392-7.166-13.266-3.516-17.994c7.27,8.434,16.4,13.168,27.619,13.937c0-1.879-0.234-3.681,0.045-5.396
		c0.826-5.096,3.834-8.621,8.629-10.355c4.891-1.77,9.518-0.951,13.48,2.525c0.834,0.733,1.545,0.903,2.479,0.56
		c1.877-0.691,3.746-1.404,5.615-2.118c0.351-0.134,0.686-0.311,1.264-0.577c-0.928,3.138-2.883,5.174-5.249,6.908
		c0.054,0.117,0.106,0.232,0.16,0.35c2.241-0.593,4.483-1.186,6.836-1.808C87.229,38.624,85.391,40.572,83.231,42.204z"/>
</g>
</svg>
