<?xml version="1.0" encoding="utf-8"?>
<!-- Generator: Adobe Illustrator 16.0.4, SVG Export Plug-In . SVG Version: 6.00 Build 0)  -->
<!DOCTYPE svg PUBLIC "-//W3C//DTD SVG 1.1//EN" "http://www.w3.org/Graphics/SVG/1.1/DTD/svg11.dtd">
<svg version="1.1" id="Calque_1" xmlns="http://www.w3.org/2000/svg" xmlns:xlink="http://www.w3.org/1999/xlink" x="0px" y="0px"
	 width="108.723px" height="108.723px" viewBox="0 0 108.723 108.723" enable-background="new 0 0 108.723 108.723"
	 xml:space="preserve">
<g>
	<path fill="#FFFFFF" d="M54.362,0C24.338,0,0,24.338,0,54.361s24.338,54.361,54.362,54.361c30.023,0,54.361-24.338,54.361-54.361
		S84.385,0,54.362,0z M41.362,80.361c-4,0-8,0-12,0c0-11,0-23,0-35c4,0,8,0,12,0C41.362,57.361,41.362,68.361,41.362,80.361z
		 M41.699,36.343c-0.856,2.475-3.237,3.968-7.374,3.968c-1.662,0.01-3.771-1.054-4.967-3.558c-1.031-2.158-0.552-4.896,1.051-6.616
		c2.044-2.189,6.076-2.689,8.779-1.086C41.596,30.479,42.661,33.567,41.699,36.343z M83.877,79.729c0,0.225-0.023,0.633-0.04,0.633
		c-3.886,0-7.722,0-11.681,0c-0.023,0-0.062-0.783-0.062-1.227c-0.003-5.773,0.029-11.488-0.025-17.262
		c-0.015-1.357-0.232-2.708-0.539-4.033c-0.482-2.096-1.758-3.574-3.93-4.002c-2.349-0.463-4.483,0.021-6.158,1.896
		c-1.256,1.405-1.951,3.047-1.943,4.933c0.025,6.156-0.137,12.317-0.137,18.476c0,0.451,0,1.219,0,1.219c-4,0-7,0-11,0
		c0-11,0-23,0-35c3,0,7,0,11,0c0,2,0,2.969,0,4.623c1-0.976,1.717-1.841,2.516-2.572c6.529-5.987,17.889-3.03,20.742,5.512
		c0.727,2.172,1.121,4.494,1.17,6.791C83.936,66.404,83.88,73.037,83.877,79.729z"/>
</g>
</svg>
