<?xml version="1.0" encoding="utf-8"?>
<!-- Generator: Adobe Illustrator 16.0.4, SVG Export Plug-In . SVG Version: 6.00 Build 0)  -->
<!DOCTYPE svg PUBLIC "-//W3C//DTD SVG 1.1//EN" "http://www.w3.org/Graphics/SVG/1.1/DTD/svg11.dtd">
<svg version="1.1" id="Calque_1" xmlns="http://www.w3.org/2000/svg" xmlns:xlink="http://www.w3.org/1999/xlink" x="0px" y="0px"
	 width="108.723px" height="108.723px" viewBox="0 0 108.723 108.723" enable-background="new 0 0 108.723 108.723"
	 xml:space="preserve">
<g>
	<path fill="#FFFFFF" d="M54.362,0C24.338,0,0,24.338,0,54.361s24.338,54.361,54.362,54.361s54.361-24.338,54.361-54.361
		S84.385,0,54.362,0z M68.362,34.519c-2,0-3.421-0.004-5.131,0.001c-4.809,0.008-6.081,1.46-6.104,6.284
		c-0.009,2.072,0.03,3.558,0.03,6.558c3.749,0,7.296,0,10.981,0c-0.283,2-0.551,4.226-0.822,6.355
		c-0.151,1.188-0.333,2.299-0.458,3.492c-0.075,0.723-0.369,1.097-1.141,1.082c-2.358-0.05-4.721,0.07-7.081,0.07
		c-0.432,0-1.275,0-1.275,0c0,9,0,19,0,28c-4,0-8,0-12,0c0-9,0-19,0-28c-3,0-6,0-9,0c0-4,0-8,0-11c3,0,6.131,0,9.372,0
		c0-2-0.047-4.197,0.013-6.145c0.062-2.073,0.007-4.27,0.386-6.291c1.105-5.883,5.258-9.743,11.235-10.482
		c3.674-0.454,6.994-0.193,10.994,0.204C68.362,27.955,68.362,31.172,68.362,34.519z"/>
</g>
</svg>
