<?xml version="1.0" encoding="utf-8"?>
<!-- Generator: Adobe Illustrator 16.0.4, SVG Export Plug-In . SVG Version: 6.00 Build 0)  -->
<!DOCTYPE svg PUBLIC "-//W3C//DTD SVG 1.1//EN" "http://www.w3.org/Graphics/SVG/1.1/DTD/svg11.dtd">
<svg version="1.1" id="Calque_1" xmlns="http://www.w3.org/2000/svg" xmlns:xlink="http://www.w3.org/1999/xlink" x="0px" y="0px"
	 width="107.185px" height="72.57px" viewBox="0 0 107.185 72.57" enable-background="new 0 0 107.185 72.57" xml:space="preserve">
<g>
	<path d="M16.949,26.74l0.198-0.509l0.647-0.772c0.332-0.57,0.605-0.916,0.822-1.035c0.033-0.133,0.082-0.26,0.149-0.38
		c0.065-0.12,0.115-0.305,0.148-0.553l0.224-0.413c0.065-0.071,0.099-0.124,0.099-0.156c0-0.032-0.067-0.124-0.2-0.273l-0.126-0.501
		c0-0.13-0.442-0.518-1.325-1.164l-0.2,0.02l-1.798-0.677l-0.101-0.234l-0.199-0.029l-0.25,0.123l-0.05,0.005l-0.849-0.161
		c-0.683-0.111-1.132-0.205-1.349-0.281c-0.033,0.036-0.083,0.058-0.149,0.064l-0.999-0.121c-0.283-0.037-0.454-0.09-0.512-0.158
		c-0.059-0.067-0.2-0.126-0.425-0.177c-0.225-0.051-0.371-0.105-0.437-0.165c-0.067-0.058-0.2-0.078-0.399-0.058l-0.624,0.208
		c0-0.049-0.233-0.107-0.699-0.175c-0.068-0.156-0.118-0.232-0.15-0.229l-0.724,0.169c-0.483-0.18-0.733-0.27-0.749-0.268
		c-0.083,0.008-0.375-0.007-0.874-0.047c-0.499-0.04-0.823-0.102-0.973-0.185c-0.15-0.083-0.375-0.159-0.673-0.227L4.252,18.25
		c-0.033-0.028-0.125-0.052-0.274-0.07l-0.449,0.044c-0.1,0.01-0.237-0.058-0.412-0.204c-0.175-0.145-0.4-0.286-0.674-0.421
		S1.927,17.23,1.718,16.9c-0.208-0.329-0.321-0.672-0.338-1.029c-0.033-0.029-0.05-0.06-0.05-0.093l0.148-0.797
		c0.147-1.008,0.62-1.975,1.415-2.901c0.132-0.453,0.406-0.798,0.82-1.035l0.1-0.352c0.481-0.455,0.825-0.815,1.032-1.08
		C5.052,9.35,5.288,9.127,5.554,8.946c0.265-0.181,0.473-0.344,0.622-0.489l0.451-0.24C6.61,8.071,6.98,7.689,7.737,7.067
		c0.757-0.62,1.347-1.037,1.771-1.25c0.423-0.213,0.706-0.367,0.847-0.463c0.141-0.095,0.551-0.258,1.233-0.489
		c0.166-0.456,0.431-0.702,0.796-0.738l0.375-0.038l0.497-0.538l0.673-0.017c0.034-0.036,0.125-0.147,0.274-0.333
		s0.398-0.296,0.747-0.33l3.015-1.204l0.199-0.02l0.2,0.029c0.133-0.013,0.303-0.144,0.51-0.392c0.208-0.249,0.478-0.39,0.81-0.422
		c0.066-0.007,0.191,0.046,0.374,0.158c0.001,0.033,0.017,0.047,0.051,0.044l0.647-0.26l0.773-0.028l0.971-0.34
		c0.615-0.061,1.155,0.032,1.622,0.279l0.049-0.103V0.465c0-0.276,0.157-0.431,0.473-0.462c0.132-0.013,0.215,0.012,0.249,0.073
		l0.299,0.141l0.175-0.017c0.033-0.004,0.25,0.073,0.649,0.229c0.249-0.188,0.406-0.285,0.473-0.292
		c0.315-0.031,0.565,0.074,0.749,0.317l0.424-0.091c0.132-0.144,0.216-0.217,0.249-0.22c0.1-0.01,0.233,0.107,0.399,0.351
		l0.15,0.034l0.624-0.062c0.033-0.003,0.1,0.039,0.2,0.127l0.274,0.193C29.69,0.904,29.782,1,29.832,1.077s0.108,0.145,0.175,0.203
		c0.431-0.222,0.664-0.334,0.697-0.338c0.166-0.017,0.291,0.11,0.375,0.378c0,0.228,0.146,0.438,0.438,0.628
		c0.291,0.191,0.437,0.409,0.438,0.653c0.366,0.126,0.549,0.369,0.55,0.727l0.477,1.15l-0.099,0.426c0.133,0.247,0.2,0.387,0.2,0.42
		l-0.098,0.913l0.102,0.943c0.001,0.505-0.239,0.96-0.72,1.366c-0.1,0.01-0.262,0.095-0.486,0.256
		c-0.224,0.161-0.353,0.243-0.386,0.246c-0.432,0.042-0.719-0.03-0.86-0.22c-0.142-0.189-0.279-0.327-0.413-0.411
		c-0.133-0.084-0.2-0.208-0.2-0.371c0-0.375,0.256-0.767,0.771-1.176c0.232-0.023,0.399-0.113,0.498-0.271
		c0-0.342-0.076-0.569-0.226-0.686c-0.149-0.115-0.312-0.278-0.487-0.489c-0.175-0.21-0.363-0.375-0.562-0.494
		c-0.2-0.118-0.362-0.277-0.488-0.477c-0.125-0.2-0.237-0.294-0.337-0.285l-0.349,0.083l-0.723-0.075
		c-0.765-0.022-1.463-0.124-2.095-0.305l-0.499,0.049l-1.346-0.062c-0.233,0.121-0.565,0.202-0.998,0.245l-1.645,0.408l-0.673,0.018
		c-0.05,0.005-0.506,0.189-1.371,0.552l-0.249,0.073L18.57,5.223c-0.034,0.004-0.246,0.106-0.635,0.308
		c-0.39,0.202-0.718,0.349-0.984,0.439l-0.224,0.12c-0.034,0.036-0.083,0.058-0.15,0.064l-0.399-0.009l-2.191,1.268l-0.35-0.161
		C13.354,7.15,13.197,7.1,13.163,7.104c-0.232,0.023-0.349,0.149-0.348,0.377L12.766,7.95c-0.216,0.152-0.357,0.264-0.423,0.335
		c-0.067,0.072-0.149,0.129-0.249,0.171l-0.3,0.03c-0.199,0.02-0.386,0.124-0.561,0.313c-0.174,0.188-0.327,0.297-0.46,0.326
		c-0.133,0.03-0.324,0.122-0.573,0.277c-0.033,0.068-0.166,0.147-0.398,0.235c-0.233,0.089-0.411,0.256-0.535,0.505
		c-0.124,0.249-0.27,0.38-0.436,0.397l-0.499-0.048L8.06,11.006c-0.349,0.116-0.548,0.185-0.598,0.206
		c-0.216,0.299-0.432,0.532-0.647,0.699c-0.216,0.167-0.427,0.348-0.635,0.54c-0.207,0.191-0.356,0.382-0.448,0.57
		c-0.091,0.188-0.228,0.344-0.41,0.468c-0.183,0.125-0.34,0.356-0.472,0.694l-0.249,0.27c-0.416,0.383-0.622,0.77-0.621,1.161
		c0,0.277,0.201,0.46,0.599,0.551c0.399,0.091,0.649,0.172,0.749,0.243s0.25,0.098,0.449,0.078c0.2-0.02,0.391,0.002,0.574,0.065
		c0.183,0.063,0.491,0.163,0.924,0.299c0.083,0.252,0.167,0.375,0.25,0.366c0.033-0.003,0.1-0.074,0.199-0.214
		c0.1-0.141,0.249-0.221,0.448-0.24c0.216-0.021,0.424,0.088,0.624,0.329l0.199-0.167l0.1-0.01l0.324,0.065l0.05-0.005l0.299-0.176
		c0.033-0.036,0.083-0.057,0.149-0.064c0.05-0.005,0.308,0.051,0.773,0.168l0.05-0.005c0.033-0.003,0.166-0.049,0.398-0.137
		c0.25,0.04,0.39,0.075,0.424,0.104l0.349,0.161c0,0.049,0.034,0.07,0.1,0.063c0.066-0.006,0.166-0.053,0.299-0.139
		c0.133-0.086,0.258-0.136,0.375-0.147c0.132-0.013,0.282,0.062,0.448,0.224c0.266-0.14,0.415-0.212,0.448-0.215
		c0.149-0.015,0.407,0.082,0.774,0.29l0.473,0.051l0.548-0.054l0.823,0.065c0.233,0.222,0.474,0.385,0.724,0.49
		c0.033-0.183,0.149-0.284,0.349-0.303c0.266-0.026,0.672,0.039,1.221,0.196l0.2,0.029l0.199,0.126
		c0.282-0.092,0.457-0.143,0.523-0.149c0.333-0.033,0.499,0.065,0.5,0.293c0,0.195-0.049,0.453-0.147,0.772
		c0.033-0.003,0.083,0.024,0.149,0.083c0.083-0.106,0.174-0.18,0.273-0.223l0.398-0.259c0.066-0.071,0.116-0.109,0.149-0.113
		c0.382-0.038,0.923,0.169,1.622,0.622c0.699,0.452,1.1,1.006,1.201,1.664c0,0.195,0.067,0.417,0.201,0.665l-0.099,0.327
		l0.051,0.386c0,0.033-0.033,0.149-0.099,0.351l-0.049,0.372c-0.034,0.069-0.083,0.131-0.149,0.186
		c-0.067,0.055-0.117,0.118-0.15,0.187l0.151,0.4l0,0.097c0,0.065-0.062,0.162-0.187,0.288c-0.125,0.126-0.203,0.24-0.237,0.341
		c-0.033,0.101-0.091,0.208-0.173,0.323c-0.083,0.114-0.141,0.246-0.174,0.396c-0.033,0.15-0.195,0.333-0.485,0.549
		c-0.291,0.217-0.435,0.374-0.435,0.471c0,0.098,0.034,0.143,0.1,0.137c0.199-0.02,0.41-0.134,0.635-0.344
		c0.223-0.209,0.393-0.337,0.509-0.381c0.116-0.044,0.315-0.161,0.597-0.352l2.338-1.307c1.741-0.987,2.711-1.491,2.91-1.51
		c0.266-0.026,0.399,0.09,0.399,0.351c0,0.098-0.116,0.297-0.348,0.597c-0.032,0.769-0.372,1.25-1.02,1.445
		c-0.249,0.188-0.44,0.378-0.572,0.57l-0.199,0.02c-0.415,0.497-0.888,0.771-1.42,0.825l-0.149,0.015
		c-0.613,0.664-1.361,1.071-2.242,1.224c-0.58,0.627-1.062,0.96-1.444,0.999l-0.398,0.137c-0.416,0.204-0.706,0.314-0.872,0.33
		c-0.034,0.003-0.1,0.076-0.2,0.216l-0.373,0.306c-0.316,0.097-0.656,0.31-1.021,0.639c-0.365,0.33-0.644,0.524-0.834,0.584
		c-0.191,0.059-0.395,0.149-0.61,0.268c-0.216,0.119-1.087,0.76-2.614,1.92l-0.324,0.13c-0.648,0.357-1.055,0.638-1.22,0.841
		c-0.166,0.204-0.365,0.382-0.597,0.536l-0.1,0.01c-0.383,0.038-0.831,0.326-1.345,0.866c-0.034,0.085-0.395,0.255-1.083,0.511
		c-0.69,0.255-1.35,0.61-1.979,1.064c-0.399,0.137-0.89,0.316-1.471,0.537c-0.582,0.22-1.005,0.36-1.271,0.419l-1.744,0.54
		c-0.383,0.103-0.822,0.244-1.321,0.424c-0.299-0.068-0.557-0.091-0.772-0.07l-0.449,0.093c-0.067,0.007-0.171-0.04-0.312-0.139
		c-0.141-0.101-0.329-0.192-0.562-0.275C0.118,37.82,0.001,37.551,0,37.095c-0.001-0.407,0.456-0.855,1.37-1.345
		s1.513-0.83,1.794-1.021c0.133-0.192,0.361-0.321,0.686-0.386c0.325-0.064,0.603-0.189,0.835-0.375
		c0.233-0.186,0.59-0.368,1.072-0.546l0.997-0.612c0.05-0.037,0.091-0.058,0.125-0.062l0.349-0.035
		c0.116-0.012,0.291-0.118,0.523-0.32s0.474-0.356,0.723-0.463l0.299-0.03c0.033-0.003,0.083-0.048,0.149-0.137
		c0.066-0.088,0.216-0.208,0.448-0.362l0.075-0.057l0.25-0.024c0.183-0.165,0.398-0.308,0.648-0.43
		c0.249-0.123,0.49-0.277,0.723-0.463l1.945-0.926l0.449,0.004c0.1-0.01,0.229-0.1,0.386-0.271c0.158-0.17,0.528-0.365,1.11-0.586
		c0.083-0.138,0.257-0.311,0.523-0.516c0.265-0.206,0.581-0.498,0.946-0.875L16.949,26.74z M8.263,33.709l-0.35-0.014
		c-0.234,0.154-0.462,0.25-0.687,0.288c-0.225,0.039-0.575,0.224-1.049,0.556c-0.474,0.333-1.02,0.66-1.635,0.981
		c-0.616,0.322-0.923,0.523-0.923,0.604c0.816-0.178,1.666-0.483,2.548-0.913l1.798-0.667c0.232-0.088,0.395-0.169,0.487-0.244
		c0.091-0.074,0.27-0.182,0.536-0.323l0.399-0.332c0.083-0.042,0.266-0.124,0.548-0.25c0.284-0.126,0.425-0.238,0.425-0.335
		c0-0.065-0.034-0.094-0.1-0.088c-0.6,0.06-1.075,0.197-1.424,0.41C8.488,33.598,8.296,33.706,8.263,33.709z"/>
	<path d="M29.647,21.644l0.522-0.468c0.398-0.072,0.614-0.296,0.646-0.674c0.033-0.378,0.306-0.731,0.82-1.059l0.298-0.445
		c0.249-0.269,0.929-0.654,2.041-1.156c0.283-0.19,0.474-0.356,0.573-0.496c0.033-0.036,0.066-0.056,0.099-0.059l0.399,0.058
		c0.216-0.021,0.494-0.105,0.834-0.254c0.34-0.147,0.668-0.237,0.984-0.268l1.046-0.153c0.066-0.007,0.203,0.029,0.412,0.106
		c0.207,0.077,0.461,0.101,0.76,0.071c0.365-0.037,0.702,0.093,1.01,0.388c0.309,0.296,0.463,0.582,0.463,0.858
		c0.001,0.505-0.263,1.044-0.792,1.618c-0.53,0.574-0.953,0.91-1.268,1.005c-0.282,0.305-0.497,0.501-0.646,0.589
		c-0.15,0.088-0.303,0.217-0.46,0.388c-0.158,0.17-0.286,0.26-0.386,0.27c-0.066,0.007-0.116-0.008-0.149-0.046
		c-0.033-0.038-0.083-0.053-0.149-0.046c-0.266,0.026-0.556,0.373-0.869,1.039l-0.448-0.004c-0.281,0.207-0.464,0.421-0.546,0.641
		c-0.083,0.219-0.256,0.343-0.521,0.369c-0.613,0.664-1.027,1.006-1.242,1.027c-0.033,0.003-0.149-0.018-0.349-0.063
		c-0.132,0.176-0.198,0.354-0.198,0.533c0,0.195-0.132,0.323-0.397,0.382l-0.323,0.325l-0.249-0.024l-0.497,0.562
		c-0.249,0.025-0.506,0.132-0.771,0.32c-0.033,0.199-0.083,0.453-0.147,0.761c-0.066,0.308-0.099,0.478-0.099,0.51
		c0.001,0.473,0.442,0.666,1.323,0.578l1.197-0.29c0.315-0.031,0.611-0.141,0.885-0.332c0.273-0.19,0.568-0.301,0.885-0.332
		c0.1-0.01,0.249-0.057,0.449-0.143l0.25,0.074c0.115-0.256,0.331-0.498,0.646-0.725c0.315-0.227,0.564-0.349,0.748-0.367
		l0.249-0.171c0.065-0.202,0.166-0.342,0.298-0.421l0.199-0.19c0.132-0.144,0.257-0.221,0.374-0.233l0.349-0.034l0.1-0.059
		c0.199-0.443,0.476-0.719,0.833-0.828c0.357-0.109,0.582-0.249,0.673-0.42c0.091-0.172,0.252-0.286,0.485-0.342
		c0.232-0.055,0.427-0.185,0.585-0.388c0.157-0.203,0.353-0.397,0.585-0.583c0.232-0.186,0.395-0.324,0.485-0.415
		c0.091-0.09,0.17-0.139,0.237-0.146c0.1-0.01,0.149,0.058,0.15,0.205c0,0.147,0.034,0.217,0.101,0.21
		c0.066-0.007,0.1-0.043,0.099-0.108c0-0.065-0.017-0.145-0.05-0.24l0-0.171c0-0.245,0.132-0.42,0.398-0.528l1.12-0.82
		c0.033-0.345,0.128-0.554,0.286-0.627c0.157-0.073,0.278-0.149,0.361-0.231c0.083-0.082,0.174-0.128,0.273-0.138
		c0.216-0.021,0.325,0.091,0.325,0.334l-0.123,0.647l0.126,0.647c0,0.098-0.079,0.239-0.236,0.427
		c-0.158,0.186-0.278,0.459-0.36,0.817c-0.083,0.359-0.19,0.561-0.323,0.606l-0.149,0.015c-0.299,0.339-0.536,0.545-0.71,0.62
		c-0.174,0.074-0.312,0.19-0.412,0.346l-0.846,1.037c-0.166,0.179-0.307,0.34-0.423,0.481c-0.116,0.142-0.207,0.216-0.273,0.223
		l-0.2-0.176c0-0.033-0.034-0.045-0.1-0.039c-0.167,0.017-0.271,0.125-0.312,0.324c-0.042,0.199-0.128,0.38-0.261,0.539
		c-0.499,0.277-0.822,0.522-0.971,0.731l-0.15,0.064l-0.449,0.044c-0.216,0.021-0.365,0.195-0.448,0.521
		c-0.082,0.326-0.319,0.533-0.709,0.621c-0.391,0.087-0.669,0.213-0.835,0.375c-0.034,0.036-0.109,0.076-0.225,0.12
		c-0.116,0.045-0.349,0.198-0.698,0.46l-2.094,0.941c-0.167,0.098-0.274,0.149-0.324,0.154l-0.699,0.167
		c-0.1,0.01-0.2-0.045-0.3-0.166c-0.1-0.12-0.167-0.179-0.2-0.175l-0.449,0.191c-0.332,0.13-0.648,0.21-0.947,0.24
		c-0.167,0.016-0.351-0.022-0.55-0.116s-0.358-0.16-0.474-0.197c-0.482,0.048-0.824-0.285-1.025-0.998l-0.299,0.079
		c-0.067,0.007-0.292-0.549-0.677-1.668c-0.1-0.12-0.258-0.198-0.474-0.234c-0.217-0.035-0.324-0.183-0.325-0.444
		c-0.002-0.733,0.159-1.242,0.482-1.526c0.323-0.284,0.501-0.493,0.535-0.627l0.345-1.305c0.066-0.055,0.149-0.227,0.249-0.513
		l0.571-1.083C29.267,22.423,29.416,22.123,29.647,21.644z M34.917,19.655l-0.299,0.176c-0.067,0.04-0.262,0.202-0.585,0.486
		c-0.324,0.285-0.639,0.52-0.946,0.705c-0.307,0.186-0.622,0.62-0.944,1.303c-0.323,0.684-0.484,1.074-0.484,1.172
		c0,0.098,0.05,0.142,0.149,0.131l0.848-0.45c0.314-0.178,0.609-0.395,0.883-0.65c0.274-0.255,0.668-0.571,1.183-0.948l0.199-0.215
		c0.033-0.068,0.187-0.202,0.46-0.4c0.274-0.198,0.477-0.385,0.61-0.561l0.249-0.123c0.281-0.468,0.568-0.765,0.858-0.892
		s0.437-0.239,0.436-0.336c0-0.196-0.159-0.278-0.475-0.247c-0.133,0.014-0.333,0.115-0.598,0.304l-0.573,0.057
		c-0.067,0.006-0.25,0.122-0.548,0.347L34.917,19.655z M40.651,11.732l-0.574,0.863c-0.2,0.085-0.517,0.287-0.949,0.606
		c-0.433,0.32-0.69,0.558-0.773,0.712l-0.323,0.179c-0.133,0.078-0.299,0.229-0.498,0.452c-0.199,0.224-0.407,0.346-0.623,0.367
		l-0.549-0.092l-0.249,0.122l-0.325-0.164c-0.266,0.158-0.415,0.237-0.448,0.24c-0.316,0.032-0.474-0.157-0.475-0.564
		c0-0.245,0.306-0.576,0.92-0.996c0.083-0.301,0.373-0.647,0.871-1.039l0.249-0.269c0.149-0.243,0.314-0.431,0.498-0.562
		c0.183-0.132,0.307-0.303,0.374-0.514c0.065-0.21,0.206-0.497,0.421-0.86s0.348-0.686,0.397-0.967
		c0.083-0.09,0.195-0.264,0.336-0.522c0.141-0.258,0.403-0.407,0.787-0.445c0.133-0.013,0.233,0.018,0.3,0.092
		c0.066,0.075,0.133,0.109,0.2,0.103l0.975-0.195c0.833-0.083,1.25,0.21,1.252,0.877c0,0.097-0.161,0.387-0.485,0.867
		c-0.324,0.481-0.578,0.9-0.76,1.26L40.651,11.732z"/>
	<path d="M47.483,17.969l0.374-0.136l0.149-0.332c0.813-0.553,1.394-1.059,1.743-1.517c0.033-0.068,0.107-0.141,0.224-0.218
		c0.116-0.077,0.24-0.203,0.374-0.379c0.613-0.664,1.344-1.038,2.191-1.122c0.998-0.099,1.53,0.443,1.6,1.625l0.15,0.352
		c0.134,0.215,0.321,0.661,0.564,1.337c0.242,0.677,0.364,1.096,0.364,1.259c0.001,0.44-0.138,0.894-0.42,1.361
		c-0.232,0.138-0.788,0.803-1.667,1.998l-0.249,0.196c-0.133,0.307-0.307,0.617-0.521,0.931c-0.333,0.147-0.499,0.286-0.498,0.416
		l0,0.439c0,0.033-0.037,0.101-0.111,0.207c-0.074,0.105-0.178,0.303-0.311,0.593l-0.199,0.312
		c-0.067,0.072-0.132,0.213-0.198,0.423c-0.066,0.21-0.162,0.403-0.286,0.578c-0.124,0.175-0.186,0.312-0.186,0.409
		c0,0.245,0.325,0.334,0.973,0.27c0.033-0.003,0.158-0.064,0.374-0.184l0.349,0.063c0.033-0.003,0.116-0.064,0.249-0.184
		c0.132-0.119,0.336-0.225,0.61-0.317c0.274-0.092,0.515-0.214,0.722-0.365c0.208-0.151,0.457-0.29,0.748-0.417
		c0.29-0.126,0.568-0.313,0.834-0.56c0.265-0.246,0.526-0.43,0.784-0.554c0.257-0.123,0.498-0.297,0.721-0.523
		c0.225-0.226,0.478-0.442,0.76-0.649c0.281-0.208,0.729-0.643,1.343-1.307c0.397-0.349,0.672-0.547,0.821-0.595
		c0.033-0.003,0.177-0.233,0.435-0.69c0.257-0.457,0.552-0.703,0.884-0.735c0.35-0.035,0.524,0.111,0.525,0.437
		c0,0.179-0.083,0.359-0.248,0.538v0.146l0.051,0.385c0.033,0.046,0.05,0.118,0.05,0.215c0.001,0.065-0.062,0.169-0.186,0.312
		s-0.212,0.318-0.261,0.527c-0.05,0.209-0.207,0.359-0.474,0.45c-0.099,0.368-0.227,0.584-0.385,0.649s-0.378,0.249-0.66,0.554
		c-0.281,0.305-0.68,0.67-1.194,1.096s-0.867,0.75-1.057,0.972c-0.19,0.223-0.319,0.337-0.386,0.344
		c-0.033,0.003-0.1-0.022-0.199-0.078s-0.167-0.082-0.199-0.079c-0.101,0.01-0.167,0.131-0.199,0.362l-0.099,0.255
		c-0.216,0.152-0.341,0.229-0.374,0.232l-0.149-0.034l-0.1,0.01c-0.199,0.02-0.3,0.103-0.299,0.25l0.15,0.229v0.049
		c0,0.228-0.132,0.355-0.398,0.381c-0.183,0.018-0.714,0.373-1.593,1.062l-0.723,0.219l-0.597,0.377
		c-0.199-0.094-0.325-0.14-0.375-0.134l-0.398,0.161l-0.723,0.121c-0.017,0.002-0.321-0.131-0.911-0.398
		c-0.591-0.267-0.945-0.558-1.061-0.872c-0.118-0.314-0.268-0.628-0.452-0.944c-0.183-0.316-0.275-0.539-0.275-0.669
		c-0.001-0.782,0.064-1.346,0.196-1.693c0.132-0.347,0.215-0.604,0.248-0.77c0.032-0.166,0.127-0.351,0.286-0.553
		c0.157-0.203,0.285-0.521,0.384-0.955c0.48-0.992,0.811-1.603,0.993-1.833c0.182-0.229,0.323-0.504,0.422-0.824l0.323-0.472
		c0.033-0.036,0.083-0.167,0.148-0.394c0.066-0.227,0.149-0.361,0.249-0.403c0.132-0.242,0.199-0.395,0.199-0.46
		c-0.001-0.472-0.218-0.687-0.65-0.644c-0.083,0.008-0.175,0.103-0.274,0.284c-0.1,0.181-0.328,0.37-0.685,0.568
		c-0.357,0.198-0.578,0.343-0.66,0.432c-0.083,0.09-0.262,0.209-0.536,0.359c-0.274,0.149-0.511,0.364-0.709,0.644l-0.423,0.238
		c-0.132,0.323-0.249,0.505-0.348,0.547c-0.1,0.043-0.407,0.154-0.922,0.336c-0.034,0.02-0.116,0.126-0.249,0.318
		c-0.133,0.193-0.323,0.301-0.572,0.326c-0.2,0.215-0.399,0.463-0.598,0.743c-0.066,0.007-0.241,0.089-0.523,0.248l-0.499,0.172
		c-0.133,0.111-0.278,0.28-0.435,0.507c-0.158,0.228-0.453,0.363-0.884,0.406c-0.25,0.024-0.375-0.158-0.376-0.549
		c-0.001-0.797,0.284-1.461,0.856-1.991c0.573-0.529,0.992-0.823,1.257-0.882s0.432-0.173,0.499-0.343
		c0.066-0.169,0.228-0.319,0.485-0.452c0.257-0.131,0.556-0.397,0.896-0.797c0.34-0.4,0.709-0.685,1.108-0.855L47.483,17.969z"/>
	<path d="M60.978,20.027l0.398-0.382l0.149-0.015c0.117-0.011,0.291-0.15,0.524-0.418l0.249-0.122
		c0.332-0.521,0.622-0.835,0.872-0.942l0.398-0.332c0.065-0.072,0.161-0.138,0.287-0.2c0.123-0.062,0.324-0.24,0.598-0.536
		s0.493-0.452,0.661-0.469c0.166-0.017,0.299-0.013,0.398,0.009c0.1-0.205,0.299-0.416,0.598-0.633
		c0.299-0.217,0.54-0.465,0.723-0.743l0.324-0.179c0.266-0.157,0.503-0.347,0.71-0.571c0.207-0.224,0.479-0.353,0.811-0.385
		c0.482-0.048,0.985,0.143,1.511,0.57c0.524,0.429,0.787,0.863,0.788,1.302l-0.419,1.948c-0.28,1.429-0.594,2.193-0.944,2.293
		l-0.098,0.522c-0.232,0.186-0.349,0.328-0.349,0.425l0.151,0.571c0,0.082-0.091,0.214-0.273,0.394
		c-0.034,0.004-0.05,0.054-0.05,0.152l0.002,1.001c0.001,0.179-0.114,0.337-0.348,0.474c0.033,0.03,0.083,0.057,0.15,0.083
		c0.099-0.108,0.323-0.179,0.673-0.213l0.398,0.009l0.546-0.592c0.116-0.044,0.277-0.138,0.485-0.281
		c0.206-0.142,0.56-0.336,1.057-0.581l3.256-2.766c0.447-0.484,0.788-0.738,1.02-0.761c0.249-0.025,0.374,0.118,0.375,0.427
		c0.001,0.358-0.07,0.663-0.209,0.913c-0.142,0.25-0.271,0.548-0.385,0.894c-0.116,0.345-0.254,0.591-0.411,0.737
		c-0.157,0.146-0.284,0.301-0.384,0.465c-0.099,0.165-0.37,0.416-0.81,0.752c-0.44,0.336-0.813,0.671-1.12,1.002
		c-0.307,0.333-0.559,0.573-0.758,0.723l-1.07,0.864l-0.149,0.259c-0.034,0.036-0.188,0.121-0.46,0.253
		c-0.275,0.134-0.52,0.292-0.734,0.476l-0.448,0.289c-0.1,0.075-0.263,0.132-0.486,0.171c-0.225,0.039-0.42,0.152-0.585,0.338
		c-0.167,0.188-0.299,0.287-0.398,0.296l-0.374-0.012l-0.498,0.196c-0.283,0.028-0.628-0.105-1.035-0.398
		c-0.409-0.293-0.613-0.627-0.614-1.002v-0.146l0.049-0.348c0-0.065-0.05-0.227-0.15-0.486c-0.1-0.258-0.15-0.404-0.15-0.437
		l0.049-0.347l-0.05-0.142c-0.001-0.439,0.032-0.72,0.098-0.84c0.066-0.12,0.115-0.284,0.148-0.491
		c0.033-0.207,0.065-0.377,0.099-0.511l0.124-0.623c0.065-0.202,0.149-0.34,0.249-0.416c0.031-0.133,0.099-0.36,0.197-0.679
		l0.099-0.45l0.249-0.367c0.132-0.143,0.211-0.327,0.235-0.548c0.024-0.222,0.111-0.463,0.261-0.722
		c0.148-0.259,0.223-0.414,0.223-0.462c-0.001-0.195-0.101-0.283-0.3-0.263c-0.066,0.006-0.273,0.157-0.621,0.452l-0.451-0.102
		c-0.032,0.003-0.124,0.094-0.272,0.271c0,0.065-0.076,0.122-0.225,0.169c-0.149,0.048-0.291,0.184-0.423,0.408l-0.2,0.069
		l-0.324-0.114l-0.1,0.01c-0.166,0.016-0.265,0.206-0.298,0.567c-0.183,0.279-0.424,0.474-0.723,0.584l-0.548,0.201
		c-0.184,0.084-0.316,0.244-0.398,0.48c-0.083,0.236-0.248,0.46-0.497,0.672c-0.249,0.212-0.415,0.322-0.499,0.331
		c-0.465,0.046-0.698-0.183-0.699-0.688l0.197-1.168L60.978,20.027z M71.721,6.744l-0.151-0.938V5.66
		c-0.002-0.765,0.264-1.215,0.796-1.35c0.115-0.027,0.464-0.168,1.045-0.421c0.3,0.035,0.612,0.261,0.937,0.676
		c0.326,0.416,0.488,0.794,0.489,1.137c0,0.033-0.024,0.108-0.074,0.227c-0.05,0.119-0.082,0.338-0.098,0.657
		c-0.018,0.32-0.178,0.613-0.484,0.879c-0.309,0.267-0.635,0.417-0.983,0.452c-0.233,0.023-0.528-0.106-0.889-0.388
		C71.95,7.247,71.755,6.985,71.721,6.744z"/>
	<path d="M79.832,16.666l0.523-0.468c0.397-0.072,0.613-0.296,0.646-0.674c0.031-0.378,0.306-0.731,0.819-1.059l0.3-0.445
		c0.248-0.269,0.929-0.654,2.04-1.155c0.282-0.191,0.473-0.356,0.572-0.497c0.033-0.036,0.066-0.056,0.1-0.059l0.398,0.059
		c0.216-0.021,0.494-0.106,0.834-0.254c0.341-0.147,0.67-0.237,0.984-0.269l1.045-0.153c0.067-0.006,0.205,0.029,0.413,0.106
		c0.207,0.077,0.46,0.101,0.76,0.071c0.365-0.036,0.702,0.093,1.01,0.389c0.309,0.296,0.463,0.582,0.463,0.858
		c0.001,0.505-0.264,1.044-0.793,1.618c-0.529,0.574-0.952,0.909-1.268,1.005c-0.28,0.305-0.496,0.5-0.646,0.589
		c-0.148,0.088-0.302,0.217-0.459,0.388s-0.286,0.26-0.385,0.27c-0.066,0.007-0.116-0.008-0.149-0.046
		c-0.034-0.038-0.085-0.053-0.15-0.046c-0.267,0.026-0.555,0.373-0.868,1.039l-0.448-0.004c-0.281,0.207-0.464,0.42-0.546,0.64
		c-0.083,0.22-0.257,0.343-0.522,0.37c-0.611,0.664-1.027,1.006-1.242,1.027c-0.034,0.003-0.149-0.018-0.349-0.064
		c-0.133,0.177-0.198,0.354-0.198,0.533c0.001,0.196-0.132,0.323-0.396,0.382l-0.323,0.325l-0.248-0.024l-0.497,0.563
		c-0.249,0.025-0.506,0.132-0.771,0.321c-0.033,0.199-0.083,0.452-0.147,0.76c-0.066,0.308-0.099,0.479-0.099,0.511
		c0.001,0.472,0.44,0.665,1.322,0.578l1.197-0.29c0.315-0.031,0.61-0.142,0.884-0.332c0.274-0.19,0.568-0.3,0.886-0.332
		c0.1-0.01,0.249-0.058,0.448-0.143l0.249,0.074c0.115-0.256,0.332-0.498,0.647-0.725c0.314-0.227,0.564-0.349,0.747-0.367
		l0.249-0.171c0.066-0.203,0.166-0.342,0.298-0.421l0.2-0.19c0.132-0.144,0.257-0.221,0.373-0.233l0.349-0.035l0.1-0.059
		c0.198-0.443,0.476-0.719,0.833-0.827c0.358-0.109,0.582-0.25,0.673-0.421c0.092-0.172,0.253-0.286,0.486-0.342
		c0.233-0.055,0.428-0.185,0.585-0.388s0.352-0.397,0.585-0.583s0.395-0.325,0.485-0.415c0.092-0.09,0.17-0.139,0.237-0.146
		c0.1-0.01,0.149,0.058,0.149,0.205c0.001,0.147,0.033,0.217,0.101,0.21c0.066-0.007,0.1-0.043,0.1-0.108s-0.018-0.145-0.051-0.24
		v-0.171c-0.001-0.244,0.132-0.42,0.398-0.528l1.12-0.82c0.031-0.345,0.127-0.554,0.285-0.626c0.158-0.073,0.278-0.15,0.36-0.231
		c0.084-0.082,0.175-0.128,0.274-0.138c0.216-0.021,0.324,0.091,0.325,0.335l-0.123,0.647l0.126,0.647
		c0,0.098-0.079,0.24-0.236,0.427c-0.158,0.187-0.277,0.459-0.36,0.817s-0.189,0.561-0.323,0.606l-0.149,0.015
		c-0.299,0.339-0.535,0.545-0.71,0.62s-0.312,0.189-0.412,0.346l-0.845,1.037c-0.166,0.179-0.308,0.34-0.424,0.481
		c-0.116,0.142-0.208,0.216-0.273,0.223l-0.2-0.176c0-0.032-0.034-0.045-0.1-0.039c-0.168,0.017-0.271,0.125-0.312,0.324
		c-0.04,0.199-0.127,0.38-0.261,0.539c-0.497,0.277-0.822,0.522-0.972,0.731l-0.148,0.064l-0.449,0.044
		c-0.216,0.021-0.365,0.195-0.448,0.521c-0.083,0.325-0.319,0.532-0.71,0.62c-0.392,0.087-0.669,0.213-0.836,0.375
		c-0.032,0.036-0.107,0.076-0.224,0.12c-0.117,0.045-0.349,0.198-0.697,0.46l-2.095,0.941c-0.167,0.098-0.275,0.149-0.325,0.154
		l-0.697,0.167c-0.1,0.01-0.2-0.044-0.3-0.165c-0.1-0.12-0.167-0.179-0.199-0.175l-0.449,0.191c-0.333,0.13-0.649,0.21-0.949,0.241
		c-0.166,0.016-0.35-0.022-0.549-0.117s-0.357-0.16-0.475-0.197c-0.482,0.048-0.823-0.285-1.024-0.998l-0.301,0.079
		c-0.065,0.006-0.292-0.549-0.676-1.668c-0.101-0.12-0.259-0.198-0.475-0.233c-0.217-0.036-0.325-0.184-0.325-0.444
		c-0.002-0.732,0.16-1.241,0.483-1.526c0.323-0.284,0.501-0.493,0.534-0.627l0.347-1.305c0.064-0.055,0.148-0.227,0.248-0.513
		l0.57-1.083C79.451,17.445,79.6,17.146,79.832,16.666z M85.101,14.677l-0.298,0.176c-0.066,0.04-0.262,0.202-0.585,0.486
		c-0.323,0.285-0.639,0.52-0.946,0.705c-0.308,0.186-0.622,0.62-0.945,1.303c-0.322,0.684-0.482,1.074-0.482,1.172
		s0.05,0.142,0.149,0.132l0.846-0.45c0.316-0.178,0.611-0.395,0.885-0.65c0.274-0.255,0.668-0.571,1.182-0.948l0.199-0.215
		c0.033-0.068,0.188-0.202,0.461-0.4c0.273-0.198,0.477-0.385,0.609-0.561l0.249-0.123c0.282-0.468,0.567-0.765,0.858-0.891
		c0.291-0.126,0.437-0.239,0.437-0.336c-0.001-0.196-0.158-0.278-0.475-0.247c-0.134,0.014-0.333,0.115-0.599,0.304l-0.573,0.057
		c-0.066,0.006-0.248,0.123-0.547,0.347L85.101,14.677z"/>
	<path d="M20.619,70.138l-0.202-1.227c0-0.097,0.049-0.256,0.148-0.479c0.1-0.01,0.183-0.049,0.249-0.122l-0.151-0.425
		c-0.001-0.57,0.161-1.078,0.484-1.525s0.501-0.746,0.535-0.896c0.033-0.152,0.269-0.651,0.708-1.501
		c0.439-0.849,0.766-1.398,0.982-1.647l0.149-0.333l0.2-0.07c0.381-0.639,0.921-1.24,1.619-1.798c0.232-0.38,0.514-0.7,0.846-0.963
		c0.332-0.261,0.556-0.446,0.673-0.555c0.116-0.109,0.291-0.191,0.523-0.248l0.1-0.058c0.481-0.521,0.896-0.798,1.246-0.832
		c0.116-0.125,0.349-0.28,0.698-0.46l0.275-0.028c0.1-0.01,0.2-0.051,0.299-0.127c0.099-0.074,0.199-0.117,0.299-0.127
		c0.066-0.006,0.241,0.041,0.524,0.144c0.266-0.287,0.481-0.439,0.647-0.456c0.35-0.035,0.704,0.061,1.062,0.286
		c0.357,0.225,0.587,0.52,0.688,0.885c0.101,0.364,0.185,0.576,0.251,0.635c0.067,0.058,0.134,0.132,0.2,0.224
		c0.133-0.013,0.307-0.332,0.522-0.955l0.299-0.421c0.451-0.614,0.758-1.313,0.924-2.095c0.034-0.036,0.083-0.175,0.149-0.418
		c0.067-0.243,0.241-0.663,0.525-1.262c0.484-0.732,0.825-1.466,1.024-2.203l0.3-0.469c0.2-0.15,0.309-0.303,0.325-0.459
		c0.017-0.157,0.066-0.304,0.149-0.443c0.083-0.138,0.178-0.306,0.286-0.504c0.107-0.198,0.195-0.333,0.261-0.404
		c0.066-0.072,0.165-0.306,0.297-0.702c0.132-0.396,0.294-0.628,0.485-0.696c0.19-0.068,0.386-0.176,0.584-0.326l0.05-0.177
		l-0.101-0.332c0-0.195,0.219-0.56,0.659-1.091c0.439-0.533,0.754-0.967,0.945-1.304c0.189-0.336,0.513-0.856,0.968-1.562
		c0.456-0.704,0.783-1.141,0.982-1.307l0.572-0.644c0.265-0.401,0.638-0.625,1.12-0.673c0.366-0.037,0.749,0.117,1.148,0.46
		c0.4,0.343,0.601,0.702,0.601,1.077c0,0.13-0.091,0.44-0.272,0.931l-0.049,0.299c0,0.261-0.091,0.579-0.272,0.955
		c-0.183,0.376-0.29,0.664-0.323,0.862l-1.389,3.486c-0.166,0.082-0.266,0.14-0.299,0.175c-0.431,0.972-0.77,1.51-1.019,1.617
		l0.001,0.488c0,0.18-0.116,0.321-0.348,0.425l-0.1,0.06c-0.148,0.633-0.338,1.1-0.571,1.4s-0.402,0.598-0.509,0.893
		c-0.107,0.297-0.278,0.472-0.51,0.527s-0.348,0.385-0.346,0.988c-0.066,0.333-0.232,0.512-0.498,0.538
		c-0.25,0.025-0.407,0.252-0.473,0.683s-0.389,0.69-0.971,0.78c-0.166,0.115-0.266,0.239-0.298,0.372l0.201,0.591
		c0,0.098-0.307,0.511-0.92,1.239l-0.199,0.656c-0.315,0.146-0.571,1.008-0.767,2.592l-0.295,1.717l0.051,0.652l-0.099,0.354
		l0.301,0.971l-0.048,0.567c0,0.26,0.1,0.381,0.3,0.361c0.1-0.01,0.324-0.18,0.672-0.507l0.348-0.182
		c1.043-0.623,1.689-1.193,1.937-1.706c0.066-0.07,0.186-0.148,0.36-0.232c0.174-0.081,0.302-0.184,0.385-0.307
		c0.083-0.121,0.148-0.21,0.199-0.264c1.01-0.75,1.664-1.386,1.962-1.905c0.298-0.517,0.604-0.842,0.918-0.97l0.199-0.215
		c0.198-0.183,0.365-0.281,0.497-0.294c0.282-0.027,0.424,0.039,0.424,0.203l-0.198,0.703c0.167,0.423,0.251,0.667,0.251,0.734
		c0.001,0.57-0.256,0.945-0.771,1.125c-0.216,0.233-0.386,0.494-0.51,0.784c-0.124,0.289-0.394,0.487-0.81,0.594
		c-0.282,0.418-0.539,0.701-0.771,0.847c-0.233,0.144-0.349,0.282-0.349,0.413l0,0.221c-0.133,0.208-0.248,0.35-0.348,0.424
		l-0.475-0.05c-0.066,0.202-0.215,0.484-0.446,0.851c-0.083-0.057-0.159-0.082-0.225-0.076c-0.233,0.022-0.424,0.182-0.573,0.472
		c-0.149,0.292-0.257,0.441-0.323,0.447l-0.573,0.058c-0.083,0.058-0.216,0.178-0.398,0.357c-0.183,0.182-0.49,0.294-0.922,0.336
		l-0.773,0.223c-0.732,0.073-1.406-0.092-2.022-0.494c-0.616-0.403-0.946-0.795-0.987-1.174c-0.043-0.379-0.181-0.824-0.415-1.339
		l-0.053-0.997c-0.185-1.022-0.394-1.524-0.626-1.501l-0.049,0.322l-0.2,0.117c-0.098,0.516-0.264,0.784-0.498,0.807
		c-0.1,0.059-0.208,0.151-0.324,0.277l-0.15,0.112c-0.067,0.04-0.162,0.188-0.286,0.443c-0.124,0.257-0.469,0.634-1.034,1.128
		c-0.231,0.626-0.406,0.946-0.522,0.957l-0.3-0.166l-0.05,0.005c-0.133,0.013-0.241,0.215-0.323,0.605
		c-0.083,0.393-0.249,0.601-0.498,0.625c-0.067,0.006-0.128,0.121-0.186,0.348c-0.058,0.225-0.204,0.379-0.436,0.458
		c-0.233,0.082-0.44,0.324-0.623,0.734c-0.182,0.409-0.306,0.616-0.373,0.622c-0.033,0.004-0.083-0.007-0.149-0.032l-0.424,0.14
		c-0.083,0.123-0.199,0.321-0.349,0.596c-0.149,0.063-0.283,0.143-0.398,0.236c-0.515,0.538-1.197,0.851-2.045,0.935
		c-0.6,0.061-1.074-0.019-1.424-0.236c-0.351-0.218-0.559-0.413-0.626-0.586s-0.192-0.384-0.375-0.636
		C20.787,70.843,20.67,70.524,20.619,70.138z M30.564,63.606l0.174-0.335c0.282-0.127,0.465-0.389,0.548-0.787
		c0.132-0.11,0.472-0.567,1.019-1.373c0.547-0.803,0.821-1.246,0.821-1.328c-0.167-0.146-0.358-0.208-0.574-0.186
		c-0.034,0.003-0.133,0.046-0.299,0.126c-0.167,0.083-0.336,0.148-0.511,0.198c-0.175,0.05-0.362,0.133-0.562,0.25l-0.623-0.035
		c-0.184,0.018-0.59,0.296-1.221,0.83l-0.573-0.04c-0.1,0.01-0.266,0.239-0.498,0.685l-1.27,1.127l-0.15,0.015
		c-0.232,0.022-0.39,0.243-0.473,0.657c-0.282,0.387-0.547,0.663-0.796,0.825c-0.249,0.163-0.424,0.38-0.523,0.65l0.001,0.318
		c-0.465,0.55-0.697,0.957-0.696,1.217c-0.349,0.359-0.577,0.733-0.684,1.119c-0.107,0.385-0.235,0.716-0.385,0.99
		c0.067,0.222,0.118,0.498,0.152,0.827c0.033,0.33,0.2,0.482,0.5,0.451c0.482-0.047,1.014-0.384,1.594-1.012
		c0.033-0.037,0.175-0.141,0.423-0.312c0.25-0.17,0.594-0.495,1.034-0.969c0.44-0.477,0.685-0.725,0.734-0.745
		c0.166-0.181,0.265-0.272,0.299-0.275l0.199-0.215c0-0.064,0.07-0.146,0.211-0.241c0.141-0.094,0.328-0.28,0.56-0.557
		c0.232-0.274,0.411-0.444,0.536-0.505c0.124-0.061,0.211-0.138,0.261-0.232c0.049-0.095,0.133-0.188,0.249-0.282
		c0.116-0.093,0.174-0.188,0.174-0.286l0.049-0.298L30.564,63.606z M39.193,52.829l-0.248,0.733
		c0.216-0.053,0.407-0.292,0.572-0.716c0.497-0.75,0.836-1.215,1.02-1.396c0.216-0.022,0.377-0.172,0.485-0.451
		c0.107-0.28,0.302-0.563,0.584-0.853c0-0.113,0.124-0.346,0.372-0.696c0.249-0.35,0.41-0.598,0.485-0.744
		c0.074-0.146,0.227-0.344,0.46-0.595c0.231-0.251,0.451-0.664,0.658-1.238c0.207-0.575,0.384-0.926,0.534-1.056
		c0.149-0.127,0.223-0.363,0.223-0.706c-0.001-0.472-0.035-0.705-0.101-0.698c-0.149,0.016-0.262,0.12-0.336,0.314
		c-0.074,0.196-0.236,0.452-0.484,0.77l-0.845,1.477c-0.331,0.586-0.55,1.048-0.658,1.384c-0.107,0.337-0.231,0.54-0.373,0.611
		c-0.141,0.071-0.311,0.247-0.51,0.527l-0.348,0.376c-0.083,0.204-0.148,0.447-0.198,0.728l-0.224,0.218l0.001,0.464
		c0,0.212-0.124,0.415-0.373,0.61c-0.249,0.196-0.373,0.318-0.373,0.367L39.193,52.829z"/>
	<path d="M57.408,41.372l-0.203-1.178c-0.017-0.112,0.029-0.255,0.137-0.429c0.107-0.173,0.178-0.319,0.211-0.436
		c0.033-0.117,0.09-0.225,0.173-0.323c0.083-0.098,0.227-0.364,0.434-0.8c0.208-0.436,0.585-0.714,1.133-0.833
		c0.167-0.179,0.398-0.284,0.698-0.313c0.399-0.04,0.878,0.279,1.436,0.957c0.559,0.677,0.838,1.114,0.838,1.31
		c0.001,0.277-0.188,0.598-0.57,0.961c0.001,0.538-0.16,1.014-0.483,1.429c-0.323,0.414-0.534,0.729-0.634,0.942
		c-0.099,0.214-0.173,0.339-0.225,0.376c-0.05,0.038-0.352,0.463-0.907,1.274c-0.555,0.812-0.991,1.235-1.306,1.267
		c-0.05,0.005-0.296-0.069-0.736-0.221c-0.441-0.151-0.661-0.243-0.661-0.276c-0.001-0.423,0.23-0.865,0.694-1.327
		c0.464-0.461,0.729-0.915,0.795-1.362c-0.083-0.024-0.241-0.212-0.475-0.564L57.408,41.372z"/>
	<path d="M61.246,58.509l0.522-0.467c0.397-0.072,0.614-0.296,0.646-0.674c0.032-0.378,0.306-0.731,0.819-1.06l0.298-0.445
		c0.249-0.269,0.929-0.653,2.041-1.155c0.282-0.19,0.474-0.356,0.573-0.497c0.032-0.036,0.065-0.056,0.099-0.059l0.399,0.058
		c0.215-0.021,0.494-0.105,0.834-0.253c0.34-0.147,0.668-0.237,0.984-0.269l1.046-0.152c0.066-0.006,0.203,0.029,0.411,0.105
		c0.208,0.078,0.461,0.101,0.76,0.072c0.366-0.037,0.702,0.093,1.011,0.388c0.308,0.295,0.462,0.581,0.463,0.858
		c0.001,0.505-0.264,1.045-0.793,1.618c-0.53,0.575-0.952,0.909-1.268,1.006c-0.281,0.305-0.497,0.501-0.646,0.588
		c-0.149,0.089-0.303,0.219-0.459,0.388c-0.158,0.172-0.286,0.26-0.386,0.27c-0.067,0.006-0.117-0.008-0.149-0.046
		c-0.033-0.038-0.083-0.053-0.149-0.046c-0.266,0.026-0.556,0.373-0.869,1.04l-0.447-0.005c-0.282,0.209-0.465,0.422-0.547,0.641
		c-0.083,0.221-0.257,0.343-0.521,0.369c-0.612,0.665-1.027,1.006-1.242,1.029c-0.034,0.003-0.149-0.019-0.349-0.064
		c-0.133,0.175-0.198,0.353-0.198,0.533c0.001,0.195-0.132,0.321-0.397,0.381l-0.322,0.326l-0.249-0.024l-0.497,0.562
		c-0.249,0.026-0.507,0.133-0.771,0.321c-0.033,0.198-0.083,0.453-0.148,0.76c-0.065,0.308-0.099,0.479-0.099,0.51
		c0.001,0.473,0.442,0.666,1.323,0.579l1.196-0.29c0.315-0.031,0.61-0.142,0.885-0.332c0.273-0.188,0.568-0.302,0.885-0.332
		c0.1-0.01,0.249-0.058,0.448-0.144l0.25,0.073c0.115-0.255,0.331-0.497,0.646-0.723c0.314-0.228,0.564-0.35,0.748-0.367
		l0.248-0.171c0.065-0.204,0.166-0.343,0.299-0.422l0.199-0.191c0.133-0.144,0.258-0.22,0.374-0.231l0.349-0.035l0.099-0.059
		c0.199-0.443,0.478-0.719,0.834-0.827c0.357-0.109,0.582-0.25,0.674-0.421c0.091-0.171,0.252-0.287,0.484-0.342
		s0.428-0.184,0.586-0.387c0.157-0.203,0.352-0.397,0.585-0.584c0.231-0.185,0.394-0.323,0.484-0.414
		c0.092-0.091,0.171-0.14,0.237-0.146c0.1-0.01,0.149,0.058,0.149,0.204c0,0.148,0.033,0.217,0.1,0.211
		c0.067-0.006,0.1-0.043,0.1-0.107s-0.016-0.145-0.05-0.239l-0.001-0.172c0-0.244,0.134-0.419,0.399-0.527l1.12-0.82
		c0.032-0.347,0.128-0.555,0.285-0.627c0.157-0.074,0.278-0.15,0.361-0.232c0.083-0.081,0.175-0.126,0.274-0.136
		c0.216-0.023,0.324,0.09,0.325,0.333l-0.124,0.647l0.126,0.648c0.001,0.098-0.078,0.24-0.236,0.427
		c-0.157,0.187-0.278,0.458-0.359,0.816c-0.083,0.359-0.19,0.561-0.324,0.607l-0.149,0.015c-0.298,0.339-0.535,0.546-0.71,0.62
		c-0.174,0.076-0.312,0.19-0.411,0.347L73.51,62.4c-0.165,0.179-0.307,0.341-0.424,0.483c-0.116,0.14-0.207,0.215-0.272,0.222
		l-0.2-0.176c0-0.033-0.034-0.046-0.1-0.039c-0.167,0.016-0.271,0.124-0.312,0.323c-0.041,0.201-0.128,0.379-0.261,0.539
		c-0.498,0.278-0.822,0.522-0.972,0.732l-0.149,0.063l-0.449,0.044c-0.217,0.022-0.365,0.195-0.448,0.521
		c-0.083,0.325-0.319,0.533-0.71,0.62c-0.391,0.089-0.669,0.213-0.835,0.376c-0.034,0.036-0.108,0.077-0.225,0.119
		c-0.116,0.045-0.35,0.198-0.698,0.461l-2.093,0.941c-0.168,0.098-0.274,0.149-0.324,0.154l-0.698,0.166
		c-0.101,0.01-0.2-0.044-0.3-0.165c-0.101-0.121-0.168-0.179-0.2-0.176l-0.449,0.19c-0.332,0.132-0.648,0.211-0.947,0.24
		c-0.167,0.019-0.351-0.021-0.55-0.116c-0.2-0.094-0.358-0.159-0.475-0.196c-0.482,0.047-0.824-0.285-1.025-0.998l-0.3,0.078
		c-0.067,0.006-0.292-0.548-0.677-1.667c-0.101-0.121-0.258-0.197-0.476-0.233c-0.216-0.035-0.324-0.185-0.325-0.444
		c-0.001-0.732,0.16-1.242,0.483-1.527c0.324-0.284,0.501-0.492,0.535-0.627l0.346-1.305c0.066-0.055,0.149-0.226,0.248-0.512
		L60.8,59.41C60.865,59.289,61.015,58.989,61.246,58.509z M66.515,56.521l-0.299,0.176c-0.066,0.04-0.261,0.201-0.585,0.486
		c-0.323,0.285-0.639,0.519-0.946,0.705c-0.307,0.186-0.622,0.619-0.943,1.303c-0.323,0.684-0.484,1.074-0.484,1.172
		s0.05,0.142,0.149,0.132l0.848-0.452c0.314-0.177,0.609-0.393,0.883-0.648c0.274-0.255,0.669-0.573,1.183-0.949l0.199-0.215
		c0.033-0.069,0.187-0.202,0.461-0.4c0.273-0.199,0.477-0.386,0.609-0.561l0.249-0.124c0.281-0.467,0.568-0.764,0.858-0.89
		c0.291-0.128,0.437-0.239,0.437-0.337c-0.001-0.195-0.16-0.278-0.475-0.247c-0.134,0.015-0.333,0.116-0.598,0.304l-0.574,0.058
		c-0.066,0.006-0.249,0.122-0.548,0.348L66.515,56.521z M72.249,48.598l-0.574,0.863c-0.2,0.085-0.516,0.288-0.948,0.606
		c-0.434,0.321-0.69,0.558-0.773,0.713l-0.323,0.179c-0.133,0.078-0.299,0.229-0.498,0.452c-0.198,0.224-0.407,0.346-0.622,0.368
		l-0.549-0.092l-0.249,0.122l-0.325-0.163c-0.266,0.157-0.416,0.236-0.448,0.24c-0.316,0.032-0.474-0.156-0.475-0.563
		c-0.001-0.245,0.306-0.577,0.92-0.996c0.083-0.302,0.373-0.648,0.871-1.04l0.249-0.269c0.148-0.242,0.313-0.43,0.497-0.562
		c0.183-0.132,0.307-0.303,0.373-0.514c0.065-0.209,0.206-0.497,0.422-0.86c0.215-0.363,0.348-0.686,0.396-0.967
		c0.083-0.09,0.195-0.264,0.337-0.523c0.142-0.258,0.403-0.407,0.787-0.445c0.133-0.013,0.232,0.019,0.3,0.093
		c0.067,0.075,0.134,0.109,0.2,0.103l0.976-0.194c0.833-0.083,1.251,0.209,1.253,0.876c0,0.098-0.163,0.388-0.486,0.867
		c-0.324,0.481-0.578,0.9-0.761,1.26L72.249,48.598z"/>
	<path d="M81.59,44.373l0.35-0.133l0.248-0.269l0.05-0.005l0.225,0.076l0.05-0.005c0.398-0.039,0.753-0.151,1.062-0.337
		c0.31-0.185,0.568-0.322,0.778-0.407c0.21-0.086,0.34-0.148,0.391-0.186c0.051-0.038,0.093-0.058,0.127-0.062l0.402,0.009
		c0.133-0.013,0.311-0.263,0.534-0.749c0.222-0.486,0.477-0.85,0.757-1.089c0.282-0.24,0.564-0.667,0.844-1.28
		c0.067-0.089,0.142-0.223,0.225-0.402c0.083-0.179,0.149-0.271,0.199-0.276c0.248-0.024,0.448-0.199,0.597-0.523
		c0.496-0.62,0.903-0.945,1.219-0.976c0.415-0.041,0.707,0.321,0.875,1.086l0.251,0.903c0,0.017-0.042,0.139-0.123,0.367
		c-0.084,0.229-0.12,0.452-0.112,0.671c0.01,0.219,0.001,0.366-0.023,0.442c-0.025,0.077-0.037,0.163-0.036,0.261
		c0,0.13,0.141,0.181,0.424,0.153c0.1-0.011,0.283-0.093,0.549-0.25l0.148-0.063c0.166,0.082,0.308,0.117,0.425,0.104
		c0.032-0.003,0.27-0.108,0.709-0.315c0.44-0.206,0.719-0.322,0.835-0.352c0.117-0.027,0.315-0.112,0.598-0.254l0.299-0.029
		l0.2,0.053c0.066-0.006,0.203-0.089,0.411-0.249c0.207-0.159,0.601-0.283,1.183-0.374l0.35-0.18l0.1-0.011
		c0.548-0.054,0.823,0.155,0.824,0.627c0,0.098-0.079,0.276-0.235,0.537c-0.158,0.259-0.286,0.55-0.386,0.869l-1.143,1.531
		c-0.382,0.526-0.764,0.809-1.146,0.847c-0.067,0.006-0.274-0.193-0.624-0.598c0-0.032-0.034-0.045-0.1-0.039
		c-0.166,0.016-0.342,0.067-0.524,0.149c-0.184,0.083-0.333,0.131-0.448,0.142c-0.05,0.005-0.49,0.171-1.32,0.498l-0.599,0.157
		c-0.066,0.007-0.225,0.056-0.474,0.146l-1.271,0.371c-0.433,0.255-0.772,0.688-1.021,1.298c0,0.032-0.082,0.113-0.249,0.244
		l-1.117,2.115c-0.367,0.133-0.607,0.37-0.723,0.707l-0.1,0.156c-0.184,0.051-0.35,0.169-0.499,0.355
		c-0.149,0.185-0.291,0.333-0.425,0.444l-0.447,0.705c-0.184,0.246-0.366,0.513-0.548,0.799c-0.183,0.287-0.315,0.585-0.398,0.895
		c-0.082,0.31-0.149,0.491-0.199,0.545c-0.049,0.054-0.073,0.146-0.073,0.275l-0.075,0.204c-0.199,0.216-0.299,0.445-0.298,0.689
		l0.101,0.381c-0.231,0.806-0.348,1.233-0.348,1.282c0,0.031,0.019,0.119,0.051,0.263v0.146c0.001,0.359-0.131,0.819-0.396,1.384
		l0.052,0.385l-0.148,1.114c0.001,0.146,0.051,0.411,0.152,0.792c-0.067,0.071-0.101,0.123-0.1,0.156
		c0.001,0.455,0.247,0.933,0.739,1.428c0.493,0.498,0.741,1.325,0.743,2.481c0.001,0.098-0.024,0.242-0.074,0.435
		s-0.083,0.398-0.099,0.621c-0.016,0.22-0.146,0.449-0.386,0.686c-0.242,0.234-0.444,0.361-0.61,0.378
		c-0.883,0.088-1.543-0.474-1.978-1.685c-0.436-1.212-0.654-1.995-0.655-2.354l0.048-0.958l-0.15-0.474l0.146-2.165l-0.102-0.504
		l0.569-2.157l-0.002-0.758c0-0.033,0.117-0.173,0.35-0.424c0-0.033-0.033-0.045-0.1-0.039c-0.101,0.01-0.232,0.12-0.399,0.332
		c-0.166,0.213-0.373,0.421-0.623,0.625l-0.198,0.361c-0.034-0.03-0.101-0.055-0.2-0.079c-0.083,0.042-0.357,0.451-0.822,1.23
		c-0.35,0.083-0.624,0.307-0.823,0.668c-0.199,0.361-0.473,0.559-0.822,0.595l-0.101,0.059c-0.064,0.479-0.298,0.738-0.697,0.777
		l-0.1,0.061c-0.249,0.577-0.506,0.871-0.773,0.881c-0.165,0.506-0.572,0.88-1.222,1.123c-0.099,0.207-0.244,0.368-0.436,0.484
		s-0.327,0.22-0.411,0.31s-0.157,0.139-0.226,0.145c-0.215,0.021-0.324-0.196-0.325-0.651c-0.001-0.131,0.054-0.279,0.162-0.444
		c0.106-0.167,0.16-0.281,0.16-0.346c0-0.033-0.082-0.123-0.25-0.269c-0.001-0.506,0.132-0.835,0.396-0.994
		c0.268-0.155,0.466-0.363,0.599-0.621c0.083-0.203,0.248-0.358,0.499-0.464c0.249-0.106,0.374-0.224,0.373-0.354
		c0-0.113,0.217-0.363,0.647-0.749c0.432-0.386,0.748-0.713,0.946-0.986c0.199-0.271,0.365-0.415,0.499-0.428l0.1-0.107
		c0.032-0.412,0.19-0.63,0.474-0.658l0.248-0.172l0.05-0.2l0.15-0.112l0.199-0.019l0.123-0.112c0.033-0.409,0.229-0.746,0.585-1.009
		c0.357-0.264,1.009-0.968,1.955-2.113s1.477-1.869,1.594-2.173c0.115-0.305,0.326-0.721,0.634-1.248
		c0.307-0.527,0.476-1.012,0.509-1.456c-0.034-0.062-0.084-0.122-0.149-0.181l-1.071,0.62c0-0.049-0.166-0.105-0.5-0.17
		c-0.248,0.17-0.432,0.336-0.547,0.494c-0.116,0.159-0.208,0.241-0.273,0.247l-0.35-0.014l-1.096,0.23
		c-0.981,0.179-1.72,0.448-2.219,0.806l-1.021,0.395l-0.225,0.022c-0.134,0.014-0.333,0.115-0.599,0.304l-0.573,0.008
		c-0.531,0.33-0.922,0.506-1.171,0.531c-0.032,0.003-0.133-0.002-0.3-0.019l-2.541,0.935c-0.199,0.085-0.646,0.464-1.344,1.136
		l-0.199,0.068c-0.166,0.017-0.362-0.146-0.587-0.491c-0.226-0.344-0.338-0.664-0.339-0.956c-0.003-1.612,1.408-2.688,4.232-3.229
		l1.021-0.492l0.05-0.006l0.274,0.071l0.1-0.01c0.1-0.011,0.258-0.086,0.473-0.23c0.216-0.144,0.698-0.342,1.445-0.595l1.022-0.371
		l0.323,0.018c0.166-0.017,0.353-0.1,0.562-0.25c0.206-0.151,0.521-0.276,0.946-0.375c0.424-0.099,0.719-0.19,0.885-0.271
		l0.397-0.137c0.066-0.006,0.203-0.076,0.412-0.212c0.207-0.134,0.477-0.218,0.81-0.25C81.266,44.308,81.391,44.328,81.59,44.373z"
		/>
	<path d="M91.885,55.471l0.521-0.467c0.399-0.074,0.615-0.298,0.647-0.676c0.031-0.378,0.305-0.731,0.819-1.058l0.3-0.445
		c0.247-0.27,0.928-0.654,2.04-1.156c0.281-0.19,0.473-0.356,0.572-0.497c0.032-0.035,0.066-0.055,0.1-0.058l0.398,0.058
		c0.216-0.021,0.494-0.105,0.834-0.253c0.34-0.147,0.669-0.237,0.983-0.269l1.046-0.152c0.067-0.007,0.204,0.029,0.412,0.105
		c0.208,0.077,0.461,0.101,0.761,0.071c0.365-0.036,0.702,0.093,1.01,0.389c0.309,0.295,0.462,0.581,0.463,0.859
		c0.001,0.503-0.264,1.043-0.793,1.618c-0.53,0.573-0.952,0.909-1.268,1.004c-0.28,0.305-0.496,0.501-0.646,0.59
		s-0.302,0.217-0.459,0.388c-0.158,0.17-0.287,0.26-0.386,0.27c-0.066,0.006-0.116-0.008-0.149-0.046
		c-0.034-0.038-0.084-0.055-0.149-0.046c-0.267,0.026-0.555,0.373-0.869,1.038l-0.447-0.003c-0.282,0.207-0.465,0.42-0.547,0.641
		c-0.082,0.219-0.256,0.343-0.521,0.369c-0.612,0.663-1.027,1.006-1.242,1.027c-0.034,0.003-0.149-0.017-0.349-0.064
		c-0.133,0.177-0.199,0.355-0.198,0.533c0,0.197-0.132,0.323-0.396,0.382l-0.324,0.324L93.8,59.924l-0.497,0.562
		c-0.249,0.024-0.507,0.131-0.771,0.321c-0.034,0.199-0.083,0.452-0.148,0.761c-0.065,0.307-0.099,0.476-0.099,0.509
		c0.002,0.473,0.441,0.664,1.323,0.577l1.196-0.29c0.316-0.031,0.61-0.142,0.884-0.33c0.275-0.191,0.569-0.302,0.887-0.333
		c0.1-0.011,0.249-0.057,0.447-0.143l0.25,0.074c0.115-0.257,0.332-0.497,0.646-0.725c0.315-0.226,0.564-0.348,0.748-0.368
		l0.248-0.17c0.067-0.202,0.167-0.342,0.298-0.42l0.2-0.191c0.133-0.144,0.258-0.222,0.374-0.234l0.349-0.034l0.099-0.059
		c0.199-0.443,0.477-0.72,0.834-0.829c0.358-0.109,0.581-0.248,0.673-0.42c0.092-0.171,0.253-0.285,0.485-0.34
		c0.233-0.056,0.428-0.186,0.586-0.389c0.156-0.203,0.352-0.397,0.585-0.583c0.231-0.187,0.395-0.325,0.485-0.416
		c0.091-0.089,0.17-0.138,0.236-0.144c0.101-0.012,0.15,0.058,0.15,0.204s0.032,0.217,0.1,0.211c0.066-0.008,0.1-0.043,0.1-0.109
		c0-0.064-0.017-0.145-0.05-0.239l-0.001-0.17c0-0.244,0.133-0.421,0.398-0.529l1.121-0.82c0.031-0.345,0.127-0.553,0.284-0.627
		c0.158-0.072,0.278-0.148,0.361-0.23c0.083-0.083,0.175-0.128,0.274-0.138c0.216-0.021,0.324,0.092,0.325,0.335l-0.124,0.647
		l0.126,0.648c0.001,0.098-0.078,0.238-0.236,0.425c-0.157,0.187-0.277,0.46-0.359,0.818c-0.083,0.359-0.19,0.561-0.324,0.605
		l-0.149,0.015c-0.298,0.339-0.535,0.546-0.71,0.622c-0.174,0.073-0.312,0.188-0.411,0.345l-0.846,1.037
		c-0.165,0.18-0.307,0.34-0.424,0.482c-0.116,0.142-0.207,0.215-0.272,0.222l-0.2-0.174c0-0.033-0.034-0.045-0.1-0.039
		c-0.168,0.016-0.271,0.124-0.312,0.323c-0.04,0.199-0.128,0.38-0.261,0.539c-0.498,0.277-0.822,0.521-0.972,0.731l-0.149,0.063
		l-0.449,0.045c-0.216,0.021-0.364,0.196-0.448,0.52c-0.082,0.326-0.319,0.533-0.71,0.622c-0.391,0.087-0.668,0.211-0.835,0.376
		c-0.033,0.034-0.108,0.075-0.225,0.119c-0.117,0.045-0.348,0.198-0.697,0.461L96,64.591c-0.167,0.098-0.275,0.149-0.325,0.154
		l-0.698,0.168c-0.1,0.009-0.199-0.046-0.299-0.167c-0.1-0.119-0.168-0.179-0.2-0.176l-0.448,0.192
		c-0.333,0.13-0.649,0.209-0.949,0.24c-0.166,0.017-0.35-0.022-0.549-0.116c-0.2-0.094-0.358-0.161-0.475-0.198
		c-0.483,0.049-0.824-0.283-1.025-0.998l-0.3,0.08c-0.065,0.006-0.292-0.55-0.676-1.669c-0.102-0.119-0.259-0.197-0.476-0.233
		c-0.217-0.035-0.324-0.183-0.325-0.445c-0.001-0.732,0.16-1.24,0.483-1.525c0.324-0.283,0.501-0.494,0.535-0.626l0.346-1.307
		c0.065-0.055,0.149-0.226,0.248-0.513l0.571-1.083C91.504,56.25,91.652,55.951,91.885,55.471z M97.153,53.481l-0.299,0.178
		c-0.066,0.04-0.261,0.201-0.585,0.484c-0.322,0.285-0.639,0.521-0.946,0.705c-0.307,0.186-0.621,0.621-0.944,1.303
		c-0.322,0.686-0.483,1.074-0.482,1.172c0,0.098,0.05,0.142,0.149,0.132l0.846-0.449c0.316-0.179,0.61-0.395,0.885-0.65
		c0.273-0.255,0.668-0.571,1.182-0.949l0.199-0.215c0.032-0.067,0.187-0.202,0.461-0.4c0.272-0.198,0.477-0.384,0.609-0.562
		l0.249-0.122c0.282-0.467,0.567-0.766,0.858-0.892s0.436-0.237,0.436-0.335c0-0.197-0.157-0.278-0.474-0.247
		c-0.134,0.013-0.333,0.114-0.599,0.304l-0.573,0.056c-0.066,0.006-0.249,0.124-0.547,0.348L97.153,53.481z M102.888,45.559
		l-0.573,0.863c-0.2,0.085-0.517,0.288-0.949,0.606c-0.434,0.321-0.69,0.558-0.772,0.713l-0.324,0.179
		c-0.133,0.078-0.299,0.229-0.498,0.452c-0.198,0.224-0.407,0.346-0.622,0.368L98.6,48.648l-0.249,0.122l-0.324-0.163
		c-0.266,0.156-0.415,0.236-0.449,0.24c-0.315,0.032-0.474-0.156-0.475-0.563c-0.001-0.245,0.306-0.576,0.921-0.996
		c0.082-0.302,0.372-0.648,0.87-1.04l0.249-0.269c0.149-0.242,0.313-0.43,0.497-0.562c0.183-0.132,0.306-0.303,0.373-0.514
		c0.066-0.21,0.207-0.497,0.422-0.861c0.215-0.363,0.348-0.685,0.396-0.967c0.084-0.09,0.195-0.264,0.336-0.523
		c0.143-0.258,0.403-0.406,0.787-0.445c0.134-0.013,0.233,0.019,0.301,0.093c0.067,0.075,0.134,0.109,0.201,0.103l0.975-0.194
		c0.833-0.083,1.251,0.209,1.253,0.876c0,0.098-0.162,0.388-0.486,0.868c-0.324,0.481-0.578,0.9-0.76,1.26L102.888,45.559z"/>
</g>
</svg>
